<svg width="18" height="18" viewBox="0 0 18 18" fill="none" xmlns="http://www.w3.org/2000/svg">
<path d="M12.0091 9.32736L14.4018 6.93468L14.4025 6.93398C14.7324 6.60414 14.8974 6.43916 14.9592 6.24885C15.0136 6.08133 15.0136 5.90088 14.9592 5.73337C14.8973 5.54292 14.7321 5.37769 14.4018 5.04738L12.9506 3.59625C12.6217 3.26735 12.4569 3.10257 12.2669 3.04082C12.0993 2.98639 11.9189 2.98639 11.7514 3.04082C11.5612 3.10261 11.3962 3.26759 11.0669 3.59695L11.0654 3.59837L8.67272 5.99106L2 12.6637V16H5.33636L12.0091 9.32736ZM8.67272 5.99106L12.0091 9.32736" stroke="#CDCDCD" stroke-linecap="round" stroke-linejoin="round"/>
</svg>
